<svg width="1487" height="396" viewBox="0 0 1487 396" fill="none" xmlns="http://www.w3.org/2000/svg">
<mask id="mask0_4875_1395" style="mask-type:luminance" maskUnits="userSpaceOnUse" x="0" y="0" width="1487" height="396">
<path d="M1486.05 0.523438H0.0494385V395.523H1486.05V0.523438Z" fill="white"/>
</mask>
<g mask="url(#mask0_4875_1395)">
<path d="M635.188 282.452V291.134V307.629C635.188 309.656 634.462 311.392 633.011 312.839C631.849 314.285 630.254 315.009 628.221 315.009H513.254C514.996 325.137 518.915 332.663 525.012 337.582C532.559 344.237 545.335 347.566 563.334 347.566C574.657 347.566 584.964 344.671 594.253 338.884C597.737 336.569 600.785 337.004 603.398 340.186C606.302 343.369 613.85 351.907 626.043 365.797C627.494 367.244 628.076 368.98 627.785 371.006C627.785 373.033 626.914 374.769 625.172 376.215C606.882 389.238 586.27 395.749 563.334 395.749C533.43 395.749 510.205 388.514 493.657 374.045C473.625 357.26 463.609 329.624 463.609 291.134V290.7C463.609 253.368 471.739 226.165 487.996 209.091C502.511 193.754 522.979 186.085 549.399 186.085C575.819 186.085 596.286 193.754 610.801 209.091C625.899 224.719 634.026 249.172 635.188 282.452ZM511.947 282.452H586.85C586.559 263.062 582.931 249.752 575.963 242.516C570.737 237.017 561.883 234.269 549.399 234.269C536.914 234.269 528.06 237.017 522.834 242.516C515.867 249.752 512.238 263.062 511.947 282.452ZM832.409 286.359C832.409 286.359 832.409 287.952 832.409 291.134C832.409 294.029 832.409 295.475 832.409 295.475C832.409 332.229 823.846 358.708 806.716 374.913C792.492 388.226 772.895 395.171 747.926 395.749H747.055C722.088 395.171 702.492 388.226 688.265 374.913C671.137 358.708 662.572 332.229 662.572 295.475C662.572 293.739 662.572 292.292 662.572 291.134C662.572 289.688 662.572 288.096 662.572 286.359C662.572 249.606 671.137 223.126 688.265 206.921C702.492 193.609 722.088 186.664 747.055 186.085H747.926C772.895 186.664 792.492 193.609 806.716 206.921C823.846 223.126 832.409 249.606 832.409 286.359ZM784.071 295.475C784.071 294.317 784.071 293.014 784.071 291.568V290.266C784.071 287.661 784.071 286.359 784.071 286.359C784.071 274.783 783.347 265.523 781.894 258.577C780.734 251.632 777.974 246.133 773.62 242.082C768.394 237.163 759.684 234.559 747.491 234.269C735.297 234.559 726.588 237.163 721.362 242.082C717.007 246.133 714.105 251.632 712.652 258.577C711.492 265.523 710.91 274.783 710.91 286.359C710.91 287.805 710.91 289.108 710.91 290.266V291.568C710.91 292.726 710.91 294.029 710.91 295.475C710.91 300.106 710.91 303.867 710.91 306.761C710.91 309.656 711.057 312.983 711.346 316.745C711.928 320.218 712.508 323.257 713.088 325.861C713.959 328.466 714.976 331.07 716.136 333.675C717.589 335.989 719.331 338.016 721.362 339.752C726.588 344.671 735.297 347.276 747.491 347.566C759.684 347.276 768.394 344.671 773.62 339.752C776.523 336.857 778.845 332.951 780.587 328.032C782.329 323.113 783.347 318.482 783.636 314.141C783.927 309.51 784.071 303.289 784.071 295.475ZM1135.46 190.426C1137.79 190.426 1139.67 191.439 1141.12 193.464C1142.58 195.49 1143.01 197.661 1142.43 199.976C1138.37 212.998 1128.21 245.555 1111.95 297.645C1095.98 349.736 1086.98 379.254 1084.95 386.2C1083.79 389.672 1081.46 391.409 1077.98 391.409H1038.35C1034.58 391.409 1032.25 389.672 1031.38 386.2L996.109 272.468C977.53 333.241 965.916 371.15 961.27 386.2C960.111 389.672 957.787 391.409 954.303 391.409H914.239C910.755 391.409 908.577 389.672 907.706 386.2C905.384 379.254 900.159 362.615 892.029 336.279C883.901 309.656 875.627 282.742 867.207 255.539C858.788 228.335 853.127 209.816 850.223 199.976C849.352 197.661 849.643 195.49 851.094 193.464C852.547 191.439 854.578 190.426 857.191 190.426H892.464C895.948 190.426 898.272 192.162 899.432 195.635L934.271 309.366C953.143 248.593 964.901 210.684 969.545 195.635C970.415 192.162 972.739 190.426 976.512 190.426H1016.14C1019.62 190.426 1021.95 192.162 1023.11 195.635L1057.95 309.366C1076.82 248.593 1088.58 210.684 1093.22 195.635C1094.09 192.162 1096.42 190.426 1100.19 190.426H1135.46ZM1331.11 282.452V291.134V307.629C1331.11 309.656 1330.38 311.392 1328.93 312.839C1327.77 314.285 1326.17 315.009 1324.14 315.009H1209.17C1210.91 325.137 1214.83 332.663 1220.93 337.582C1228.48 344.237 1241.25 347.566 1259.25 347.566C1270.58 347.566 1280.88 344.671 1290.17 338.884C1293.66 336.569 1296.7 337.004 1299.32 340.186C1302.22 343.369 1309.77 351.907 1321.96 365.797C1323.41 367.244 1323.99 368.98 1323.7 371.006C1323.7 373.033 1322.83 374.769 1321.09 376.215C1302.8 389.238 1282.19 395.749 1259.25 395.749C1229.35 395.749 1206.12 388.514 1189.58 374.045C1169.54 357.26 1159.53 329.624 1159.53 291.134V290.7C1159.53 253.368 1167.66 226.165 1183.91 209.091C1198.43 193.754 1218.9 186.085 1245.32 186.085C1271.74 186.085 1292.2 193.754 1306.72 209.091C1321.82 224.719 1329.94 249.172 1331.11 282.452ZM1207.87 282.452H1282.77C1282.48 263.062 1278.85 249.752 1271.88 242.516C1266.66 237.017 1257.8 234.269 1245.32 234.269C1232.83 234.269 1223.98 237.017 1218.75 242.516C1211.79 249.752 1208.16 263.062 1207.87 282.452ZM1479.99 186.085C1481.73 186.374 1483.18 187.098 1484.34 188.255C1485.8 189.413 1486.52 190.86 1486.52 192.596V238.175C1486.52 240.78 1485.51 242.806 1483.47 244.253C1481.44 245.699 1479.26 245.989 1476.94 245.121C1470.26 242.806 1464.46 241.648 1459.52 241.648C1452.85 241.358 1446.6 242.516 1440.8 245.121C1435.28 247.435 1430.64 250.62 1426.86 254.671C1423.38 258.722 1420.62 262.34 1418.59 265.523C1416.55 268.418 1414.96 271.456 1413.8 274.639V384.029C1413.8 386.055 1413.07 387.792 1411.62 389.238C1410.17 390.684 1408.43 391.409 1406.39 391.409H1372.86C1370.83 391.409 1369.09 390.684 1367.64 389.238C1366.18 387.792 1365.46 386.055 1365.46 384.029V197.805C1365.46 195.779 1366.18 194.043 1367.64 192.596C1369.09 191.149 1370.83 190.426 1372.86 190.426H1406.39C1408.43 190.426 1410.17 191.149 1411.62 192.596C1413.07 194.043 1413.8 195.779 1413.8 197.805V212.998C1432.38 194.477 1454.44 185.506 1479.99 186.085Z" fill="#F9A535"/>
<path fill-rule="evenodd" clip-rule="evenodd" d="M1.08167 9.7819C1.08167 5.23706 4.7778 1.55273 9.33722 1.55273H26.8803H41.4563H48.1773C50.2138 1.55273 52.1782 2.30299 53.6933 3.6593L58.6939 8.13572L208.864 142.565C212.001 145.374 216.758 145.374 219.895 142.565L370.066 8.13574L375.067 3.65928C376.581 2.30299 378.546 1.55273 380.581 1.55273H387.303H401.879H419.422C423.981 1.55273 427.677 5.23706 427.677 9.7819V27.2689V369.055V386.542C427.677 391.089 423.981 394.771 419.422 394.771H384.336C379.776 394.771 376.08 391.089 376.08 386.542V369.055V90.33C376.08 83.2097 367.624 79.4498 362.31 84.2075L232.281 200.607L227.28 205.084C225.765 206.44 223.8 207.189 221.763 207.189H215.043H213.718H206.996C204.96 207.189 202.995 206.44 201.48 205.084L196.479 200.607L66.4506 84.2075C61.1359 79.4498 52.6789 83.2097 52.6789 90.3302V369.055V386.542C52.6789 391.089 48.9827 394.771 44.4233 394.771H9.33722C4.7778 394.771 1.08167 391.089 1.08167 386.542V369.055V27.2689V9.7819Z" fill="#F9A535"/>
<path fill-rule="evenodd" clip-rule="evenodd" d="M171.977 243.224C171.977 234.307 179.265 227.043 188.21 227.043C197.154 227.043 204.442 234.307 204.442 243.224C204.442 252.138 197.154 259.402 188.21 259.402C179.265 259.402 171.977 252.138 171.977 243.224ZM214.38 277.895C205.104 277.895 197.816 280.205 197.816 286.809C197.816 292.208 201.356 298.707 208.798 300.902C207.859 310.158 199.668 317.761 190.196 317.761C180.032 317.761 171.505 309.734 171.505 299.13C171.505 296.289 169.195 293.987 166.345 293.987C163.495 293.987 161.185 296.289 161.185 299.13C161.185 315.601 174.521 328.048 190.196 328.048C199.904 328.048 208.653 323.046 213.945 315.533C219.231 323.193 228.109 328.048 237.898 328.048C253.669 328.048 266.911 314.848 266.911 299.13C266.911 296.289 264.601 293.987 261.751 293.987C258.901 293.987 256.591 296.289 256.591 299.13C256.591 309.166 247.97 317.761 237.898 317.761C228.376 317.761 220.289 310.715 219.307 301.103C227.195 299.172 230.943 292.64 230.943 286.809C230.943 279.876 223.656 277.895 214.38 277.895ZM240.881 227.043C231.936 227.043 224.648 234.307 224.648 243.224C224.648 252.138 231.936 259.402 240.881 259.402C249.826 259.402 257.113 252.138 257.113 243.224C257.113 234.307 249.826 227.043 240.881 227.043Z" fill="#F9A535"/>
</g>
</svg>
